<?xml version="1.0" encoding="utf-8"?>
<svg viewBox="0 0 500 500" xmlns="http://www.w3.org/2000/svg" xmlns:xlink="http://www.w3.org/1999/xlink">
  <ellipse style="stroke: rgb(0, 0, 0); fill: rgb(5, 11, 13); stroke-width: 0px;" cx="250" cy="250" rx="250" ry="250" />
  <path
    d="M 276.813 217.408 L 276.813 193.646 C 283.449 191.334 290.299 189.631 297.363 188.54 C 304.428 187.448 311.707 186.902 319.199 186.902 C 324.123 186.902 329.1 187.17 334.131 187.705 C 339.161 188.241 344.459 189.043 350.025 190.113 L 350.025 213.875 C 343.604 212.377 337.93 211.307 333.007 210.664 C 328.083 210.022 323.48 209.701 319.199 209.701 C 311.92 209.701 304.749 210.343 297.685 211.627 C 290.621 212.912 283.663 214.839 276.813 217.408 Z M 276.813 293.189 L 276.813 269.427 C 282.807 267.329 289.229 265.627 296.079 264.321 C 302.929 263.016 310.636 262.362 319.199 262.362 C 324.979 262.362 330.384 262.684 335.415 263.326 C 340.446 263.969 345.316 264.824 350.025 265.895 L 350.025 289.657 C 343.604 288.159 337.93 287.088 333.007 286.446 C 328.083 285.804 323.48 285.482 319.199 285.482 C 311.92 285.482 304.749 286.125 297.685 287.409 C 290.621 288.693 283.663 290.62 276.813 293.189 Z M 276.813 255.298 L 276.813 231.536 C 283.663 229.224 290.674 227.469 297.846 226.27 C 305.017 225.072 312.135 224.472 319.199 224.472 C 324.979 224.472 330.384 224.793 335.415 225.436 C 340.446 226.077 345.316 226.934 350.025 228.004 L 350.025 251.766 C 344.459 250.268 339.161 249.197 334.131 248.555 C 329.1 247.913 324.123 247.592 319.199 247.592 C 312.349 247.592 305.445 248.234 298.487 249.518 C 291.53 250.803 284.306 252.729 276.813 255.298 Z M 262.042 324.337 C 271.247 320.055 280.666 316.737 290.299 314.382 C 299.933 312.027 309.78 310.85 319.842 310.85 C 327.762 310.85 335.629 311.331 343.443 312.295 C 351.256 313.258 358.91 315.453 366.402 318.878 L 366.402 172.774 C 358.91 169.991 351.256 167.796 343.443 166.19 C 335.629 164.585 327.762 163.782 319.842 163.782 C 309.566 163.782 299.611 164.906 289.978 167.154 C 280.345 169.402 271.033 172.881 262.042 177.59 L 262.042 324.337 Z M 250.803 370.576 C 240.099 363.726 228.93 357.732 217.296 352.594 C 205.661 347.456 193.175 344.888 179.838 344.888 C 172.22 344.888 164.559 345.792 156.854 347.602 C 149.149 349.411 141.719 351.825 134.562 354.842 C 126.352 358.482 118.359 358.09 110.583 353.667 C 102.807 349.244 98.919 342.572 98.919 333.649 L 98.919 168.798 C 98.919 162.886 100.31 157.446 103.093 152.479 C 105.876 147.513 109.836 143.788 114.974 141.305 C 125.25 137.023 135.701 133.973 146.327 132.153 C 156.955 130.334 167.81 129.424 178.893 129.424 C 191.792 129.424 204.219 130.869 216.174 133.759 C 228.128 136.649 239.35 141.305 249.84 147.727 C 260.757 141.734 272.086 137.184 283.827 134.08 C 295.567 130.976 307.887 129.424 320.786 129.424 C 331.87 129.424 342.725 130.334 353.352 132.153 C 363.979 133.973 374.429 137.023 384.705 141.305 C 389.843 143.788 393.857 147.513 396.747 152.479 C 399.637 157.446 401.082 162.926 401.082 168.92 L 401.082 338.465 C 401.082 346.172 397.889 351.899 391.505 355.645 C 385.12 359.391 378.465 359.552 371.54 356.126 C 363.313 352.467 354.865 349.679 346.197 347.762 C 337.529 345.846 328.743 344.888 319.842 344.888 C 306.932 344.888 294.821 347.51 283.508 352.755 C 272.194 358 261.292 363.94 250.803 370.576 Z"
    style="fill: rgb(163, 208, 247);" />
</svg>